# xmcd CD database file
#
# Track frame offsets:
#	150
#	10911
#	27231
#	44429
#	62244
#	87907
#	100858
#
# Disc length: 1655 seconds
#
# Revision: 8
# Processed by: cddbd v1.5.2PL0 Copyright (c) Steve Scherf et al.
# Submitted via: CDex 1.77
#
DISCID=52067507
DTITLE=Ryan Adams - Love Is Hell Pt.2
DYEAR=2003
DGENRE=Rock
TTITLE0=My Blue Manhattan
TTITLE1=Please Do Not Let Me Go
TTITLE2=City Rain, City Streets
TTITLE3=I See Monsters
TTITLE4=English Girls Approximately
TTITLE5=Thank You Louise
TTITLE6=Hotel Chelsea Nights
EXTD=YEAR: 2003
EXTT0=
EXTT1=
EXTT2=
EXTT3=
EXTT4=
EXTT5=
EXTT6=
PLAYORDER=
